<svg width="275" height="865" viewBox="0 0 275 865" fill="none" xmlns="http://www.w3.org/2000/svg">
<g clip-path="url(#clip0_240_99)">
<path d="M121.402 277.158C97.4042 277.158 84.6356 259.89 84.6356 240.486C84.6356 229.273 88.8918 217.449 97.7046 207.46C102.875 201.404 109.246 195.947 115.931 191.09C106.204 183.823 97.7046 175.944 92.2342 167.154C90.4065 164.12 89.5052 161.098 89.5052 158.364C89.5052 151.396 94.6752 145.94 100.747 145.94C105.003 145.94 109.559 148.362 113.202 154.43C118.673 163.221 127.485 171.1 137.813 177.767C159.382 166.854 184.606 159.887 209.818 155.642C209.818 145.34 210.118 135.339 210.118 125.637C210.118 115.935 209.818 106.546 209.517 98.0548C208.603 79.5751 199.49 72.2956 185.207 72.2956L173.352 72.2956C138.414 72.2956 94.0493 67.1513 71.5666 29.5675C68.8376 25.0225 67.6234 20.7772 67.6234 17.1437C67.6234 8.05368 74.6085 1.98534 81.9066 1.98534C87.0767 1.98534 92.2342 4.70735 95.5765 11.0754C110.16 39.5566 142.97 43.8019 169.709 43.8019C175.48 43.8019 181.251 43.8019 186.421 43.5022L188.249 43.5022C212.246 43.5023 232.3 60.4711 233.214 94.4213C233.515 112.002 233.515 131.993 233.515 152.607C242.027 151.996 250.827 151.396 259.34 151.396C268.153 151.097 273.01 158.364 273.01 165.343C273.01 172.323 268.753 178.679 259.941 178.679L259.327 178.679C254.771 178.379 250.514 178.379 246.258 178.379C241.702 178.379 237.445 178.379 233.189 178.679L233.189 208.983C233.79 208.371 234.403 207.472 235.317 206.86C242.916 200.492 246.559 193.225 250.201 185.946C251.716 182.612 254.758 181.101 257.8 181.101C262.97 181.101 268.741 185.646 268.741 192.926C268.741 193.837 268.44 194.436 268.44 195.348C267.226 204.438 260.541 215.651 255.071 221.107C251.729 224.741 247.773 225.952 244.431 225.952C239.573 225.952 235.317 223.23 233.189 219.584L233.189 225.34C233.189 234.13 227.418 238.675 221.334 238.675C215.251 238.675 209.48 234.13 209.179 225.04C208.879 217.761 208.879 210.494 208.879 202.915C208.879 195.335 208.879 188.368 209.179 181.089C193.995 183.211 179.398 186.845 166.042 191.702C173.64 194.424 181.226 197.158 188.224 198.969C194.909 200.792 197.637 205.936 197.637 211.093C197.637 217.761 192.467 225.04 184.881 225.04C183.367 225.04 181.839 224.741 180.024 224.129C168.483 219.884 153.285 213.516 138.101 205.337C130.202 210.494 123.517 216.25 118.347 222.918C113.177 228.974 110.448 235.042 110.448 240.186C110.448 245.643 114.091 249.576 121.689 249.576L124.418 249.576C132.931 249.576 137.487 256.244 137.487 263.211C137.487 270.178 132.931 276.846 123.204 277.158L121.377 277.158L121.402 277.158ZM36.9412 239.275C51.2245 228.974 56.0816 217.761 60.3378 206.848C62.7663 200.48 67.0225 197.458 71.5791 197.458C77.9634 197.458 84.3352 203.514 84.3352 212.005C84.3352 213.216 84.3352 214.727 84.0347 215.95C80.6924 233.219 69.451 251.711 57.9092 260.801C53.966 263.835 50.0102 265.046 46.3674 265.046C37.5546 265.046 30.5695 258.079 30.5695 250.5C30.5695 246.567 32.3971 242.621 36.9537 239.287L36.9412 239.275ZM45.1407 215.638C28.7293 215.638 6.55952 199.88 6.55952 158.051L6.55952 156.541C6.85996 110.479 32.685 86.8421 69.1506 85.9306C79.4781 85.631 84.3352 92.898 84.3352 100.178C84.3352 107.457 79.7785 114.125 70.0519 114.125C47.2687 114.125 31.7712 124.426 30.8574 156.253L30.8574 157.465C30.8574 171.711 36.0274 185.346 45.7415 185.346L46.9558 185.346C56.069 185.346 60.6257 192.314 60.6257 199.593C60.6257 207.472 55.7686 215.051 46.042 215.651L45.1281 215.651L45.1407 215.638ZM91.6333 139.272C91.0199 149.573 84.0347 167.766 77.35 174.733C73.7072 178.679 69.451 180.489 65.4953 180.489C57.5963 180.489 50.9115 174.121 50.9115 167.154C50.9115 164.432 52.1258 161.398 54.8548 158.663C62.4533 151.396 65.7957 143.517 68.2242 134.115C69.7389 127.148 74.2956 124.114 79.1651 124.114C85.2365 124.114 91.6208 129.57 91.6208 138.061L91.6208 139.272L91.6333 139.272ZM174.279 144.729C174.579 135.339 174.579 125.637 174.579 116.235C174.579 106.833 174.579 98.0548 174.279 89.8638L174.279 88.9523C174.279 81.6853 179.449 78.339 184.606 78.339C190.076 78.339 195.847 82.2847 195.847 89.252L195.847 89.8513C195.547 98.6417 195.247 108.643 195.247 119.244C195.247 127.735 195.547 136.213 195.847 144.704L195.847 145.615C195.847 153.194 190.677 156.828 185.207 156.828C179.736 156.828 174.266 153.194 174.266 145.315L174.266 144.716L174.279 144.729ZM105.003 126.848C104.702 123.215 104.402 120.181 104.402 117.146C104.402 113.813 104.702 110.778 105.003 107.145C106.217 93.1977 113.202 81.0735 128.399 80.4741C130.527 80.4741 137.212 80.4741 139.34 80.7738C153.01 82.2971 161.823 91.3747 163.037 106.233C163.338 110.479 163.338 114.412 163.338 118.358C163.338 121.392 163.338 124.726 163.037 128.059C161.823 143.517 155.439 155.03 139.34 155.941C138.126 155.941 135.998 156.241 133.87 156.241C131.441 156.241 129.313 155.941 128.399 155.941C113.215 154.118 106.53 142.906 105.003 126.848ZM134.17 102.6C132.956 102.6 131.742 102.6 131.128 102.9C127.185 103.199 125.357 106.833 124.744 110.778C124.444 113.201 124.143 115.623 124.143 118.045C124.143 120.468 124.444 122.89 124.744 125.625C125.357 130.469 127.786 133.503 130.815 133.803C132.03 133.803 136.286 134.103 137.2 134.103C141.456 133.503 143.271 130.17 143.884 125.924C144.185 123.502 144.185 120.78 144.185 118.045C144.185 115.311 144.185 112.901 143.884 110.778C143.283 106.533 141.155 103.199 137.2 102.9C136.586 102.6 135.372 102.6 134.158 102.6L134.17 102.6ZM9.28851 28.656C9.28851 19.566 16.2737 13.8099 23.5718 13.8099C29.3427 13.8099 34.8131 17.1437 37.5421 25.3222C41.1849 37.1467 53.9535 48.9587 64.8819 52.5923C71.2661 54.7149 73.6947 59.5596 73.6947 64.4168C73.6947 71.6838 68.2242 78.6636 60.3252 78.6636C59.111 78.6636 57.5963 78.364 56.069 78.0643C36.3153 72.3081 13.8326 50.7942 9.88937 33.5132C9.58894 32.0024 9.28851 30.1794 9.28851 28.6685L9.28851 28.656Z" stroke="white" stroke-width="3.18" stroke-miterlimit="10"/>
<path d="M156.027 566.902C156.64 544.477 156.941 515.983 156.941 486.59C156.941 457.198 156.64 426.893 156.027 401.134L156.027 400.834C156.027 392.656 161.497 388.71 166.968 388.71C172.438 388.71 177.909 392.656 177.909 400.535L177.909 401.134C177.308 421.437 176.995 445.073 176.995 468.71L189.15 468.71C189.15 456.586 188.85 444.462 188.549 431.738L188.549 431.438C188.549 423.859 193.719 420.226 198.576 420.226C204.047 420.226 209.204 424.159 209.204 431.438L209.204 431.738C208.904 444.162 208.603 456.586 208.603 468.71L218.931 468.71C218.931 451.441 218.63 434.772 218.33 419.015L218.33 418.415C218.33 410.536 223.8 406.591 229.271 406.591C234.741 406.591 240.512 410.536 240.512 418.415L240.512 419.015C239.899 433.561 239.598 450.842 239.598 468.111C246.283 468.111 252.968 467.811 259.039 467.811L259.34 467.811C268.453 467.811 272.709 474.778 272.709 482.058C272.709 489.337 268.152 496.604 259.64 496.604L259.039 496.604C252.968 496.305 246.283 496.305 239.598 496.305C239.598 513.573 239.899 530.555 240.199 543.578L240.199 543.877C240.199 551.756 234.729 555.39 229.258 555.39C223.788 555.39 218.317 551.756 218.317 544.177L218.317 543.578L218.918 496.005L208.591 496.005C208.591 508.129 208.891 520.553 209.192 534.488L209.192 534.787C209.192 542.367 204.022 546 198.864 546C193.707 546 188.537 542.367 188.537 535.087L188.537 534.475C188.837 520.84 189.138 508.104 189.138 495.993C185.182 495.993 180.938 496.292 176.982 496.292C176.982 521.752 177.283 546.3 177.896 566.902L177.896 567.501C177.896 575.68 172.426 579.626 166.955 579.626C161.485 579.626 156.014 575.38 156.014 567.501L156.014 566.902L156.027 566.902ZM45.1281 538.408C19.0026 538.408 3.80547 520.828 3.80547 495.68C3.80547 493.558 3.80548 491.435 4.10592 489.312C5.01975 480.522 11.3915 476.277 17.4754 476.277C23.8596 476.277 29.931 480.522 29.931 488.401L29.931 492.334C29.931 501.724 35.101 511.426 48.1575 511.725C50.8864 511.725 53.3275 512.025 56.0565 512.025C56.0565 502.323 56.3569 492.022 56.3569 481.721C56.3569 471.419 56.0565 461.418 56.0565 452.628C45.1156 452.927 34.4876 452.927 25.3743 452.927L14.7339 452.927C6.22148 452.628 1.97781 445.96 1.97781 439.592C1.97781 433.224 6.23401 426.257 15.3473 426.556C20.2043 426.556 26.2882 426.856 32.66 426.856C47.2437 426.856 64.5689 426.556 81.8815 426.556C92.2091 426.556 102.236 426.556 111.662 426.856C132.931 427.455 146.601 443.525 148.128 466.25C148.428 471.707 148.428 476.551 148.428 481.708C148.428 486.553 148.428 491.41 148.128 497.166C146.613 522.925 131.116 536.261 111.662 536.873C101.335 537.172 81.2807 537.172 73.3817 537.472C62.7412 538.084 54.5418 538.084 46.3423 538.383L45.1281 538.383L45.1281 538.408ZM75.5098 512.037C80.0664 512.037 84.9235 512.037 89.793 511.738C90.0935 501.736 90.0935 491.735 90.0935 481.733C90.0935 471.732 90.0935 461.73 89.7931 452.34L75.5098 452.34L75.5098 512.037ZM109.234 511.126C118.648 510.527 125.645 505.07 126.547 494.157C126.847 489.912 126.847 485.367 126.847 480.822C126.847 476.277 126.847 472.031 126.547 468.997C125.633 458.384 118.948 453.539 109.835 452.94L109.234 452.94L109.234 511.126ZM18.3892 375.362C8.06166 375.362 2.89166 367.783 2.89166 359.904C2.89166 352.026 8.06166 344.759 18.3892 344.759L19.303 344.759C73.6946 347.181 128.988 347.793 183.066 347.793C207.064 347.793 230.46 347.793 253.857 347.493L254.157 347.493C263.27 347.493 267.827 355.372 267.827 362.951C267.827 370.53 263.27 378.109 254.458 378.109L253.544 378.109C242.903 377.498 232.275 377.198 221.334 376.898C224.063 379.021 225.891 382.954 225.891 386.9C225.891 389.934 224.977 392.956 222.849 395.69C217.679 402.058 205.536 408.726 198.539 410.237C197.024 410.536 195.81 410.536 194.583 410.536C185.47 410.536 180.613 403.869 180.613 397.501C180.613 392.656 183.655 387.799 190.026 386.288C197.312 384.777 205.211 380.831 209.78 377.198C210.081 376.898 210.081 376.599 210.381 376.599C170.886 375.387 129.563 374.776 88.2408 374.776C65.1447 374.776 41.7482 375.075 18.6646 375.375L18.3642 375.375L18.3892 375.362ZM198.864 338.99C180.938 338.391 163.012 333.533 149.342 326.566C142.958 323.532 140.229 318.075 140.229 312.931C140.229 305.964 145.086 299.596 152.685 299.596C155.414 299.596 158.455 300.507 161.497 302.318C173.953 310.197 188.236 312.619 199.177 312.919C207.377 313.218 211.332 319.586 211.332 325.954C211.332 332.322 207.377 338.99 199.478 338.99L198.877 338.99L198.864 338.99Z" stroke="white" stroke-width="3.18" stroke-miterlimit="10"/>
<path d="M8.37459 773.613C8.67503 762.7 15.9731 757.243 23.2587 757.243C30.5443 757.243 37.542 762.7 37.542 772.389L37.542 774.811C37.2416 776.934 37.2416 779.356 37.2416 781.479C37.2416 821.485 81.9065 835.42 128.7 835.42C138.727 835.42 148.754 834.808 158.48 833.597C174.278 831.774 182.791 821.473 184.606 805.103C185.207 800.558 185.52 795.401 185.52 790.257C185.52 784.201 185.219 777.833 184.606 772.988C183.692 764.498 178.535 760.864 177.921 760.265C162.123 751.474 148.754 742.085 141.155 735.105C137.512 731.771 135.985 727.526 135.985 723.593C135.985 722.082 136.286 720.558 136.586 719.048C118.059 719.048 98.3054 718.448 87.9779 718.136C64.5814 716.925 49.9976 704.501 46.6553 679.341C46.3548 676.919 46.0544 674.184 46.0544 671.462C46.0544 668.74 46.3548 666.006 46.6553 663.883C48.7834 639.635 61.239 626.911 87.6775 625.7C97.4041 625.101 113.503 624.789 129.914 624.789C146.325 624.789 162.123 625.088 171.837 625.7C188.549 626.312 200.704 633.279 206.175 647.214C207.089 649.337 208.904 650.548 211.645 651.459C219.544 653.282 238.384 656.304 248.411 657.827C257.224 659.038 261.48 665.706 261.48 672.673C261.48 680.253 256.623 687.52 248.111 687.52C246.897 687.52 245.682 687.52 244.468 687.22C234.14 685.097 220.771 682.675 209.53 679.641L209.53 680.24C208.015 705.4 194.032 717.512 172.463 718.423C170.335 718.423 167.907 718.723 165.478 718.723C189.788 738.426 228.983 756.307 256.022 762.662C263.007 764.485 266.35 770.241 266.35 776.297C266.35 783.876 260.879 792.055 251.766 792.055C250.251 792.055 248.724 791.755 247.21 791.455C236.569 788.421 222.899 783.277 208.929 776.609L209.542 782.665C209.843 787.21 209.843 791.456 209.843 795.701C209.843 799.946 209.843 804.192 209.542 808.724C207.414 840.239 188.274 859.643 161.535 861.766C152.422 862.365 142.094 862.977 131.454 862.977C75.8477 862.977 8.39963 849.042 8.39963 779.032L8.39963 773.575L8.37459 773.613ZM100.734 779.369C111.675 772.701 120.175 759.978 123.83 751.787C126.259 746.03 130.815 743.608 135.071 743.608C141.756 743.608 148.441 749.364 148.441 758.155C148.441 760.277 148.14 762.4 147.227 764.822C143.283 776.035 132.643 794.215 120.788 802.406C116.832 805.128 113.19 806.352 109.547 806.352C100.734 806.352 93.7488 798.772 93.7488 790.894C93.7488 786.648 95.8769 782.403 100.734 779.381L100.734 779.369ZM120.488 692.389C120.488 684.81 120.788 678.442 120.788 671.787C120.788 665.132 120.488 658.751 120.488 651.185C108.332 651.185 96.7907 651.484 90.106 651.796C79.7785 652.396 72.7933 657.553 71.5665 665.431C71.2661 667.854 70.9656 669.976 70.9656 672.099C70.9656 673.922 71.2661 675.733 71.5665 677.556C73.0812 686.046 80.3793 690.591 90.7069 691.503L120.488 692.414L120.488 692.389ZM170.623 691.478C178.222 690.878 184.593 686.933 186.121 677.231C186.421 675.408 186.421 673.897 186.421 672.686C186.421 670.563 186.421 669.052 186.121 666.63C184.906 658.139 179.135 652.084 170.022 651.784C163.638 651.484 154.224 651.172 143.897 651.172L143.897 692.389L170.636 691.478L170.623 691.478Z" stroke="white" stroke-width="3.18" stroke-miterlimit="10"/>
</g>
<defs>
<clipPath id="clip0_240_99">
<rect width="865" height="275" fill="white" transform="translate(275) rotate(90)"/>
</clipPath>
</defs>
</svg>
