<svg width="782" height="437" viewBox="0 0 782 437" fill="none" xmlns="http://www.w3.org/2000/svg">
<g clip-path="url(#clip0_240_95)">
<path d="M70.0415 103.164L134.829 114.582C137.023 114.973 138.015 116.957 137.051 119.934C114.677 213.497 72.9064 289.186 5.91134 310.777C5.39427 311.141 4.96106 311.071 4.51386 310.987C2.76702 310.679 1.67699 309.128 2.5015 307.018L65.5556 105.54C66.3802 103.429 67.8475 102.787 70.0415 103.178V103.164ZM180.931 372.771C135.863 339.091 120.77 289.046 135.513 205.419C141.536 171.278 152.646 131.254 169.025 84.4932C169.849 82.383 170.953 81.2231 173.147 81.6144L238.368 93.1158C240.562 93.5071 241.638 95.0444 241.246 97.2385L204.507 305.607L271.921 317.499L282.654 256.652C283.115 254.025 285.015 253.466 287.056 254.723C318.834 279.278 340.188 339.929 331.551 396.626C331.16 398.82 329.623 399.896 327.429 399.505L185.166 374.42C183.852 374.196 182.622 373.511 180.945 372.771H180.931ZM236.188 5.63197C282.584 13.8214 332.362 36.1256 354.47 64.3971C355.546 65.9343 355.239 67.6952 354.065 69.2884L308.004 118.033C306.299 119.99 304.985 119.752 303.029 118.061L169.346 10.9984C167.39 9.29344 167.334 7.02948 169.752 6.10713C187.849 0.72673 211.676 1.31368 236.188 5.63197ZM323.558 165.479C323.781 164.165 324.899 163.005 326.283 162.809L388.205 144.39C390.106 143.831 391.783 144.572 392.859 146.109C412.871 178.531 420.766 233.635 412.032 283.093C406.47 314.606 394.074 344.024 373.937 363.491C371.799 365.364 369.605 364.987 369.199 362.206L323.753 166.876C323.39 166.359 323.46 165.926 323.544 165.493L323.558 165.479Z" stroke="white" stroke-width="3.18" stroke-miterlimit="10"/>
<path d="M488.334 315.501L490.472 303.384C480.634 303.328 470.447 302.504 460.902 300.813C451.357 299.122 442.441 296.606 434.07 293.672C432.477 293.155 432.729 291.757 434.252 291.31L550.955 251.844L552.059 245.556C552.269 244.396 553.093 243.809 554.253 244.018L584.299 249.315L585.361 243.264L564.399 239.574C563.239 239.365 562.652 238.554 562.862 237.38L565.978 219.688C566.188 218.528 567.012 217.941 568.172 218.151L589.134 221.84L590.196 215.789L563.407 211.065C562.247 210.856 561.66 210.045 561.869 208.871L565.559 187.909C565.768 186.749 566.593 186.176 567.753 186.371L658.589 202.387C659.749 202.596 660.336 203.407 660.126 204.581L656.437 225.543C656.227 226.703 655.403 227.29 654.243 227.081L627.453 222.357L626.391 228.408L647.353 232.098C648.527 232.307 649.1 233.132 648.89 234.292L645.774 251.984C645.564 253.158 644.754 253.731 643.58 253.521L622.618 249.832L621.556 255.883L651.364 261.138C652.524 261.347 653.111 262.158 652.901 263.332L649.212 284.294C649.002 285.454 648.178 286.041 647.018 285.832L580.4 274.079L649.911 329.322C651.182 330.258 650.945 331.67 649.268 331.6C640.17 331.446 630.458 330.692 620.913 329.001C611.131 327.282 601.516 324.626 592.027 321.258L589.889 333.361C589.679 334.535 588.855 335.108 587.695 334.898L489.872 317.653C488.712 317.443 488.139 316.619 488.334 315.459V315.501ZM455.074 226.298L483.024 231.217L484.086 225.166L463.361 221.505C462.188 221.295 461.615 220.484 461.824 219.31L464.941 201.604C465.15 200.444 465.961 199.857 467.135 200.067L487.859 203.714L488.879 197.901L463.962 193.499C462.802 193.289 462.215 192.478 462.425 191.304L466.114 170.342C466.324 169.182 467.149 168.595 468.308 168.805L555.413 184.163C556.573 184.373 557.16 185.197 556.95 186.357L553.261 207.32C553.051 208.494 552.241 209.067 551.067 208.857L526.15 204.469L525.116 210.283L546.078 213.972C547.238 214.182 547.811 215.006 547.615 216.166L544.499 233.858C544.289 235.032 543.479 235.605 542.305 235.396L521.343 231.706L520.281 237.758L546.134 242.313C547.769 242.607 548.021 243.851 546.651 244.801C527.506 259.433 496.775 263.388 449.932 255.366C448.772 255.156 448.185 254.332 448.394 253.172L452.866 227.779C453.076 226.619 453.9 226.032 455.06 226.242L455.074 226.298ZM457.115 319.595L621.556 348.594C622.716 348.803 623.303 349.614 622.855 350.746C615.099 376.991 590.015 402.118 544.806 397.031L544.569 396.989C543.409 396.78 542.864 395.732 543.772 394.683L566.02 365.224L452.587 345.226C451.427 345.016 450.84 344.192 451.05 343.032L454.907 321.147C455.116 319.973 455.941 319.4 457.101 319.609L457.115 319.595ZM544.862 291.841C538.252 295.237 530.846 297.78 523.327 299.569L562.219 306.431C556 302.21 550.131 297.333 544.862 291.841Z" fill="white"/>
<path d="M715.173 417.659C709.555 421.013 703.35 423.053 696.796 423.249C696.712 423.23 696.623 423.216 696.53 423.207C695.734 423.067 695.566 422.494 696.083 421.907L702.302 412.809L691.136 402.146L686.468 428.643C686.357 429.3 685.756 429.607 685.141 429.216C673.556 423.235 669.88 411.719 670.663 399.631C665.618 403.628 659.651 405.836 653.18 405.514L653.041 405.486C652.384 405.375 652.076 404.774 652.454 404.159L662.236 384.146C662.46 383.643 663.061 383.35 663.592 383.434L673.472 385.181C673.947 384.035 674.31 382.735 674.785 381.603C671.571 381.309 668.539 380.778 665.646 380.261C663.801 379.94 662.082 379.632 660.503 379.353C659.846 379.241 659.511 378.78 659.637 378.109L662.166 363.743C662.278 363.086 662.753 362.751 663.41 362.876L670.258 364.078L674.213 359.341L667.309 326.052C667.337 325.926 667.225 325.759 667.267 325.507C667.337 325.116 667.798 324.794 668.441 325.032C671.795 326.024 674.799 327.506 677.175 329.42L690.018 308.989C690.395 308.374 690.954 308.332 691.471 308.43L707.682 311.294C708.339 311.406 708.674 311.881 708.269 312.622C703.518 321.846 695.231 332.606 684.498 337.232C685.798 339.091 686.818 341.047 687.698 342.962L698.766 329.546C699.116 329.071 699.563 328.875 700.094 328.973L716.696 331.894C717.492 332.033 717.786 332.634 717.408 333.249C712.294 342.263 704.971 351.431 696.418 359.033L708.437 355.581C709.01 355.414 709.513 355.637 709.834 356.098C713.621 362.345 714.292 370.884 712.336 378.151L736.582 382.427L737.42 377.69L726.604 375.789C726.213 375.719 725.835 375.524 725.36 375.16C717.814 367.852 716.095 356.811 717.954 346.274C719.323 338.49 722.719 330.804 727.289 324.948C727.638 324.473 728.085 324.277 728.616 324.361L740.746 326.499L744.687 318.771C744.911 318.268 745.512 317.961 746.043 318.058L764.489 321.315C765.286 321.454 765.594 322.055 765.202 322.67C763.455 325.619 761.275 327.953 759.067 329.742L778.702 333.207C779.233 333.305 779.568 333.641 779.75 334.2C782.028 341.271 782.615 349.516 781.245 357.3C779.359 367.977 773.839 377.732 764.252 382.022C763.679 382.19 763.26 382.246 762.868 382.176L754.428 380.681L758.103 391.385L762.547 384.691C762.924 384.077 763.483 384.049 764.014 384.146L779.96 386.955C780.616 387.067 781.05 387.696 780.644 388.437C776.536 395.592 769.59 401.028 762.24 403.404L773.377 435.812C773.489 435.966 773.447 436.231 773.419 436.357C773.35 436.749 772.888 437.084 772.357 436.986C762.379 434.96 754.875 428.196 749.76 418.735C745.805 429.593 738.804 436.916 727.652 436.986C727.107 437.028 726.841 436.986 726.338 436.762C719.058 434.121 714.739 425.485 715.159 417.673L715.173 417.659ZM698.333 369.025L695.314 359.928C692.408 362.541 689.291 364.847 685.951 366.831L698.333 369.011V369.025ZM702.218 388.604C705.949 393.608 707.459 400.539 706.354 406.73L715.187 393.608L709.653 392.629C708.982 392.517 708.66 392.042 708.786 391.385L709.988 384.538C709.01 386.271 707.752 387.948 706.452 389.219C705.935 389.806 705.278 389.695 705.027 388.828L702.008 379.744C699.661 380.681 697.271 381.212 694.755 381.589L692.408 394.907L700.737 388.493C701.226 388.031 701.757 388.129 702.204 388.618L702.218 388.604ZM730.112 419.21L734.458 394.572C730.056 404.131 723.795 411.859 716.402 416.806L730.112 419.224V419.21ZM758.83 366.524L759.78 361.116L736.973 357.091L736.023 362.499L758.83 366.524ZM761.876 349.251L762.812 343.982L740.006 339.957L739.069 345.226L761.876 349.251Z" fill="white"/>
</g>
<defs>
<clipPath id="clip0_240_95">
<rect width="782" height="437" fill="white"/>
</clipPath>
</defs>
</svg>
