<svg width="489" height="474" viewBox="0 0 489 474" fill="none" xmlns="http://www.w3.org/2000/svg">
<g clip-path="url(#clip0_240_90)">
<g style="mix-blend-mode:soft-light">
<path d="M118.46 468.048C118.46 459.93 117.377 423.137 102.776 387.963C120.09 389.594 133.073 390.13 142.807 390.13C167.153 390.13 169.854 385.261 169.854 374.977V361.442H92.5075C89.2587 398.783 81.6909 434.493 65.995 473.988C65.995 473.988 35.1633 436.647 2.16581 418.792C23.799 373.881 27.0477 314.9 27.0477 248.349V163.395C22.7161 144.993 14.0653 117.937 0 91.9761C29.2135 68.1821 48.1457 29.2227 51.3944 12.4511C53.5602 2.16649 51.9296 0 56.7965 0H58.9623C138.475 4.33297 143.889 4.33298 143.889 11.9032C143.889 14.6051 142.271 16.7716 138.487 18.9381C135.239 21.1046 133.085 22.1878 131.455 23.8065H143.902C149.852 23.8065 153.1 22.1878 157.967 18.4027C159.585 17.3194 161.216 16.7841 162.834 16.7841C165.535 16.7841 177.447 21.6524 220.713 48.7086C223.962 50.3272 225.045 52.4937 225.045 54.6602C225.045 60.6118 213.681 67.6467 209.362 74.6816C204.495 81.7164 199.628 89.8345 194.213 97.4048H238.575V398.796C238.575 452.36 220.178 471.298 155.814 471.298C144.45 471.298 132.55 470.75 118.485 469.667V468.048H118.46ZM102.241 85.4891C100.075 89.2742 97.3743 93.6072 95.2085 97.3923H117.925C121.173 93.0593 123.874 89.2742 126.04 85.4891H102.241ZM107.108 167.741H95.7562V196.416H107.108V167.741ZM107.108 259.182H95.7562V291.106H107.108V259.182ZM169.854 167.741H157.955V196.416H169.854V167.741ZM169.854 259.182H157.955V291.106H169.854V259.182ZM420.839 469.132C420.304 460.466 419.756 451.812 419.221 443.694C373.241 450.729 327.809 456.145 293.729 459.382C285.613 459.93 278.045 461.001 272.631 466.953C268.847 470.738 265.063 473.452 261.279 473.452C257.495 473.452 254.246 470.202 252.08 461.549C248.832 448.015 239.633 401.485 239.633 384.713C239.633 380.393 240.716 379.31 242.882 379.31C245.048 379.31 247.213 379.857 250.997 380.393C253.698 380.393 256.947 380.941 261.279 380.941C274.261 380.941 295.894 379.31 321.859 377.156V319.793H313.208C313.744 326.293 313.744 332.245 313.744 337.1V346.837H246.666C248.832 334.934 249.367 224.007 249.367 145.005V65.4678H320.764C320.216 36.7929 319.146 17.307 318.063 14.6051C315.897 9.73674 314.279 5.95161 314.279 3.78513C314.279 1.08324 316.98 0 322.93 0H325.643C409.487 4.33297 410.57 6.49946 410.57 14.0697C410.57 17.3194 408.405 21.1046 404.621 24.3543C398.671 29.2227 398.123 32.4724 397.588 38.9594C397.588 42.2092 397.588 51.9459 397.04 65.4678H470.068V142.839C470.068 219.126 470.616 326.268 472.769 338.171H405.691C406.239 336.553 406.239 333.838 406.239 331.136V319.781H397.04V369.025L408.392 367.406C407.857 362.003 406.226 356.051 405.143 350.087L468.437 340.35C478.719 379.31 485.204 415.019 489 459.395L420.839 469.132ZM321.859 140.685H312.126V244.576H321.859V140.685ZM407.322 140.685H397.04V244.576H407.322V140.685Z" fill="white"/>
</g>
</g>
<defs>
<clipPath id="clip0_240_90">
<rect width="489" height="474" fill="white"/>
</clipPath>
</defs>
</svg>
