<svg width="625" height="886" viewBox="0 0 625 886" fill="none" xmlns="http://www.w3.org/2000/svg">
<g clip-path="url(#clip0_240_92)">
<path d="M408.487 301.894C434.529 292.433 457.546 280.141 487.05 258.615C488.191 257.703 489.504 257.228 489.922 257.076C491.216 256.601 491.805 256.886 491.976 257.323C492.3 258.197 491.615 260.401 491.501 261.427C490.398 269.197 483.188 293.896 485.49 308.278C488.971 317.816 443.127 334.953 427.51 340.633C391.5 353.724 337.515 371.393 284.442 310.691C285.831 350.912 277.137 401.183 268.444 404.337C267.151 404.812 265.686 404.85 263.479 404.185C252.275 400.404 232.625 403.121 222.733 404.28C220.831 404.47 219.804 404.356 219.5 403.501C219.195 402.646 219.728 401.449 220.451 400.708C261.254 344.167 239.055 237.412 231.94 217.9C230.209 213.131 231.94 212.504 233.671 211.877L234.546 211.554C281.76 207.64 284.252 213.112 284.575 213.986C285.831 217.463 282.768 222.498 279.211 226.24C277.08 228.482 275.825 230.42 276.053 233.764C276.453 237.545 278.108 244.802 279.42 255.119C294.372 278.64 309.571 294.713 328.079 303.68L293.972 210.091C288.285 194.493 280.866 174.126 272.819 157.426C254.767 164.475 243.943 169.889 220.831 179.275L219.538 179.75C217.807 180.377 216.19 179.997 215.391 177.831C213.698 174.525 210.064 164.551 207.211 156.761L202.284 168.863C201.733 170.041 200.744 171.39 199.012 172.017C198.137 172.34 197.281 172.644 196.102 172.093C183.871 168.198 173.808 168.901 159.37 169.737C156.612 170.25 154.995 169.851 154.671 168.996C154.348 168.141 154.633 167.533 155.622 166.204C160.397 159.079 164.677 150.643 168.824 141.771C138.654 149.313 124.882 153.322 112.137 157.464C115.048 157.388 116.988 158.642 117.463 159.934C118.091 161.663 117.14 164.475 114.629 168.331C111.509 171.922 113.05 174.791 113.716 177.983C115.181 183.341 117.578 191.301 119.594 200.877L130.874 196.773C144.323 191.89 161.082 185.298 177.365 177.413L179.096 176.786C180.827 176.159 181.436 176.425 182.064 178.154L182.691 179.883C188.341 210.224 223.437 313.275 220.375 361.494C218.301 397.574 201.257 415.547 179.457 424.457C176.414 425.559 173.77 425.046 170.745 420.752C164.24 412.317 144.932 401.183 135.078 392.995C133.613 403.824 122.904 455.33 113.792 458.636C112.499 459.111 111.471 458.997 109.854 458.598C95.854 453.887 80.7502 456.907 68.7851 457.819C65.8557 457.895 63.8203 457.667 63.3447 456.356C63.0213 455.482 63.573 454.305 64.8475 452.386C120.716 375.155 88.7586 237.583 69.3368 184.291L65.8557 174.753C55.1651 179.123 41.7543 185.469 18.2426 196.469C13.0305 198.369 11.9652 196.792 5.17421 178.154C-0.361311 162.993 -1.5407 157.046 1.9404 155.773L3.23392 155.298C34.5448 146.863 48.9067 143.101 60.3392 139.453C57.0293 130.352 51.3035 113.291 50.6758 111.562C42.9717 91.7844 37.5694 80.9929 27.1451 63.1909C26.4032 62.4879 26.0798 61.6139 25.9276 61.177C25.4521 59.885 26.3271 59.562 28.9332 58.6121C38.3683 56.1612 64.7904 50.4805 80.9595 49.0176C84.3074 48.7706 86.2477 50.0435 87.0276 52.2094C88.6065 56.5412 86.3238 63.7608 85.4487 69.4605C84.0791 77.8201 83.7177 80.8789 89.3293 98.966C89.957 100.695 95.2072 116.464 98.5171 125.565C111.376 120.397 122.619 114.83 154.652 100.258L155.527 99.9349C157.258 99.308 160.074 100.258 161.006 102.842C162.699 106.148 165.856 114.811 168.862 123.057L172.172 132.157C189.825 83.5388 192.811 21.602 188.113 4.67389C187.314 2.50801 188.303 1.17808 190.471 0.380117C193.496 -0.721826 238.237 0.684101 240.767 7.61874C241.718 10.2216 240.767 13.0145 237.247 18.2202C233.025 24.1669 230.552 24.0909 230.399 34.4453C230 41.456 229.22 50.0815 228.155 59.2961L251.59 50.7845C272.838 43.0519 299.318 33.4384 354.292 9.04367L355.167 8.72068C356.898 8.09372 358.249 9.08167 359.619 11.5135C360.988 13.9454 363.518 20.8801 366.219 28.2517C368.749 35.1863 371.432 42.5579 372.268 46.1677C372.459 48.0676 371.203 49.9865 369.91 50.4615L369.472 50.6135C316.59 65.9077 284.043 77.7441 264.088 85.0017C250.639 89.8845 236.049 95.6792 221.725 100.885C219.595 113.937 216.456 126.857 212.975 138.902C243.278 130.333 253.569 127.579 291.309 113.861C339.036 96.5151 341.471 95.1282 346.056 91.4994C348.338 89.6945 350.031 87.6046 351.762 86.9586C355.662 85.5337 387.81 91.5184 389.712 96.7241C390.511 98.89 389.712 102.12 387.505 106.851C385.299 111.581 384.633 140.764 381.837 156.02C381.723 157.046 381.019 157.787 380.144 158.11C379.706 158.262 378.85 158.585 377.823 158.471C362.795 159.022 351.838 164 342.841 166.28C341.376 166.318 340.368 166.204 340.197 165.767C339.873 164.893 340.425 163.715 340.539 162.689C341.871 152.885 345.066 136.014 345.219 131.055L320.052 140.194C319.976 142.683 317.883 146.388 316.628 148.306C314.935 150.396 314.859 152.885 331.123 197.514L333.33 203.575C351.401 196.526 382.598 183.702 398.291 175.551C400.46 174.753 403.694 175.551 404.645 178.154C406.509 181.897 409.343 189.686 412.025 197.058C418.017 213.53 417.789 215.563 413.452 217.14C400.403 220.408 365.497 231.142 345.808 237.811L373.79 310.577C383.263 309.589 393.269 307.423 404.112 303.471L408.449 301.894H408.487ZM127.26 235.322C135.402 276.531 142.763 331.761 136.067 386.212C146.986 385.186 155.28 383.647 161.348 381.443C177.403 375.611 194.352 360.126 152.312 227.209C142.611 230.249 135.078 232.491 127.26 235.341V235.322Z" fill="white"/>
<path d="M601.678 652.73C605.16 651.476 608.508 656.625 612.921 668.765C615.451 675.7 617.695 683.224 618.837 687.708C619.464 689.436 616.896 691.849 615.603 692.324C577.025 702.413 519.159 722.97 491.406 733.058C500.517 756.731 510.523 780.081 520.034 802.158C520.985 804.76 519.292 806.85 499.756 813.937C477.196 822.145 475.313 822.335 473.563 817.566C466.657 794.558 459.144 771.284 451.344 747.136C425.474 757.035 385.432 772.557 353.132 787.737C348.795 789.314 346.74 789.067 339.797 770.011C334.262 754.85 332.683 750.518 337.457 748.77L338.751 748.295C375.16 738.986 414.802 725.079 440.388 715.769C437.496 706.517 434.034 696.979 430.724 687.878C412.234 695.098 385.641 705.738 357.526 718.904C353.189 720.481 351.99 719.93 345.675 702.603C338.884 683.965 339.607 683.224 343.944 681.647C374.551 673.952 401.772 665.042 420.414 658.259L409.514 628.355C389.712 636.049 365.572 645.302 345.104 655.2C344.229 655.523 340.292 655.485 339.493 653.3C337.324 648.683 333.843 639.165 331.313 632.23L328.783 625.296C327.832 622.693 329.525 620.603 330.838 620.128L331.713 619.805C354.349 614.523 378.964 606.563 399.071 599.742L388.019 569.42C368.654 576.943 341.205 587.906 310.921 601.87L310.046 602.193C304.834 604.093 303.103 599.324 297.891 585.018C295.874 586.234 294.467 587.735 292.964 591.724C290.795 597.918 286.192 610.875 279.173 626.683L284.138 626.835C287.485 626.607 289.578 628.298 290.377 630.463C291.328 633.066 290.967 636.144 289.464 640.115C285.926 649.254 287.333 653.148 290.967 663.123C308.467 715.161 323.305 761.291 339.093 804.627C346.036 823.683 353.417 842.606 361.083 860.922C361.882 863.087 360.608 865.025 358.439 865.804C354.406 868.255 346.607 871.086 338.789 873.917C314.935 882.599 313.546 880.149 312.595 877.546C296.692 813.652 274.493 744.667 252.903 681.362C236.658 712.292 219.937 736.516 215.162 738.264C213.869 738.739 211.967 738.929 210.197 738.112C200.857 732.678 182.938 729.372 172.533 727.757C170.041 727.681 168.272 726.845 167.949 725.991C167.625 725.136 168.348 724.376 169.756 722.875C220.546 678.892 252.655 582.32 255.927 557.583C255.737 555.683 255.851 554.657 257.145 554.201C257.582 554.049 258.02 553.878 258.61 554.163C264.335 555.037 283.7 558.286 297.701 563.017C330.039 554.695 357.697 545.633 376.948 539.116C373.79 530.453 370.195 521.941 366.6 513.43C351.134 519.547 329.753 528.287 303.502 539.8L302.627 540.123C300.896 540.75 299.279 540.37 298.043 538.356C295.874 533.739 292.393 524.221 289.711 516.849C285.602 505.583 285.45 505.146 291.518 502.942C318.777 495.494 339.474 488.94 354.825 483.867C346.417 464.83 338.808 447.978 332.245 438.098C331.332 436.959 331.18 436.522 330.857 435.648C330.381 434.356 330.819 434.185 332.112 433.71C336.012 432.285 392.299 418.206 395.133 426.015C396.237 429.055 393.592 433.938 391.272 439.694C387.562 448.396 387.239 447.541 394.867 469.789C412.653 463.329 440.54 452.196 466.658 440.264C470.139 439.01 471.147 439.124 471.622 440.416L472.421 442.582C474.305 453.184 480.867 473.855 489.237 496.824C507.727 489.605 525.912 481.53 540.636 474.71C544.098 473.456 546.59 473.532 552.582 489.985C555.112 496.919 557.356 504.443 558.498 508.927C559.125 510.656 557.28 512.309 555.968 512.784L555.093 513.107C539.856 517.172 520.453 523.252 501.64 529.598C511.398 554.999 521.423 579.812 527.967 595.106L528.29 595.98C529.717 599.875 525.094 602.041 512.52 606.62C494.297 613.25 489.808 614.39 488.058 609.622C487.107 607.019 486.003 603.998 485.337 600.806L446.722 614.846L457.622 644.751C476.283 637.968 506.053 626.664 538.638 610.894C542.1 609.641 545.106 612.471 549.995 625.904C552.372 632.401 554.294 639.07 555.435 643.554C556.234 645.72 553.666 648.133 552.353 648.608C519.578 657.081 487.582 667.74 468.35 674.237C471.66 683.338 475.579 692.704 478.889 701.805C504.493 692.495 562.188 671.52 601.108 652.958L601.545 652.806L601.678 652.73ZM260.398 504.937C254.368 508.604 252.161 507.939 249.859 515.139C230.704 573.143 197.586 633.275 189.786 636.106C188.055 636.733 186.153 636.942 184.232 635.669C174.873 630.235 157.125 627.367 146.282 625.904C143.809 625.828 142.173 625.429 141.698 624.137C141.546 623.7 142.097 622.522 143.505 621.021C184.746 580.515 212.575 503.17 212.404 481.15C212.214 479.25 212.766 478.072 213.622 477.768C216.665 476.666 264.944 485.121 268.406 494.658C269.509 497.698 266.827 501.118 260.36 504.937H260.398ZM404.683 499.104L414.308 525.532C424.295 521.903 436.431 517.495 453.19 510.903C449.081 499.636 445.333 490.688 443.279 485.064L404.663 499.104H404.683ZM465.003 541.947C447.654 548.255 435.347 552.244 425.36 555.873L436.564 586.633L476.036 572.288L464.984 541.966L465.003 541.947Z" stroke="white" stroke-width="6.37" stroke-linecap="round" stroke-linejoin="round"/>
</g>
<defs>
<clipPath id="clip0_240_92">
<rect width="625" height="886" fill="white"/>
</clipPath>
</defs>
</svg>
